<?xml version="1.0" encoding="UTF-8"?>
<svg width="24px" height="24px" viewBox="0 0 24 24" version="1.1" xmlns="http://www.w3.org/2000/svg" xmlns:xlink="http://www.w3.org/1999/xlink">
    <!-- Generator: Sketch 64 (93537) - https://sketch.com -->
    <title>Icons_Outlined_ContinuedForm</title>
    <desc>Created with Sketch.</desc>
    <g id="Icons_Outlined_ContinuedForm" stroke="none" stroke-width="1" fill="none" fill-rule="evenodd" fill-opacity="0.9">
        <path d="M18.9041667,14.0083333 C21.6080608,14.0083333 23.8,16.2002726 23.8,18.9041667 C23.8,21.6080608 21.6080608,23.8 18.9041667,23.8 C16.2002726,23.8 14.0083333,21.6080608 14.0083333,18.9041667 C14.0083333,16.2002726 16.2002726,14.0083333 18.9041667,14.0083333 Z M18.9329922,16.6787879 C18.124705,16.6787879 17.5849428,17.1769407 17.5469695,17.9449262 L18.1979391,17.9449262 C18.2250628,17.5446249 18.4963001,17.2866529 18.9004437,17.2866529 C19.3398481,17.2866529 19.5785369,17.5357293 19.5785369,17.9093439 C19.5785369,18.2918541 19.3045873,18.5616868 18.903156,18.5616868 L18.4312031,18.5616868 L18.4312031,19.1369347 L18.9140055,19.1369347 C19.3995203,19.1369347 19.6978813,19.4008371 19.6978813,19.8337556 C19.6978813,20.2281266 19.3805337,20.5038897 18.9302798,20.5038897 C18.4637516,20.5038897 18.1708153,20.2429525 18.1382669,19.8515468 L17.4710231,19.8515468 C17.5062839,20.6136019 18.0650328,21.1295459 18.924855,21.1295459 C19.7792525,21.1295459 20.4085231,20.6195323 20.4085231,19.8634075 C20.4085231,19.2674033 20.0287909,18.8759975 19.4429183,18.8285544 L19.4429183,18.8107632 C19.9257207,18.7188422 20.2512054,18.336332 20.2512054,17.8055621 C20.2512054,17.1383931 19.7033061,16.6787879 18.9329922,16.6787879 Z M12.05,7.15416667 C14.7538941,7.15416667 16.9458333,9.34610591 16.9458333,12.05 C16.9458333,12.4300784 16.9025226,12.800041 16.8205673,13.1552217 C15.0033686,13.5735559 13.5735559,15.0033686 13.1544327,16.8197783 C12.800041,16.9025226 12.4300784,16.9458333 12.05,16.9458333 C9.34610591,16.9458333 7.15416667,14.7538941 7.15416667,12.05 C7.15416667,9.34610591 9.34610591,7.15416667 12.05,7.15416667 Z M12.05,9.7 C11.1922729,9.7 10.58125,10.2479126 10.58125,11.0109741 L10.58125,11.0195801 L11.2754639,11.0195801 L11.2754639,11.0081055 C11.2754639,10.5978882 11.5967529,10.293811 12.0270508,10.293811 C12.4372681,10.293811 12.7442139,10.566333 12.7442139,10.9077026 C12.7442139,11.2175171 12.6151245,11.4297974 12.1446655,11.9088623 L10.6214111,13.4235107 L10.6214111,13.9226562 L13.5302246,13.9226562 L13.5302246,13.3173706 L11.6082275,13.3173706 L11.6082275,13.3030273 L12.6323364,12.2903931 C13.1745117,11.7424805 13.4671143,11.3695557 13.4671143,10.8761475 C13.4671143,10.2048828 12.8761719,9.7 12.05,9.7 Z M5.19583333,0.3 C7.89972742,0.3 10.0916667,2.49193925 10.0916667,5.19583333 C10.0916667,5.57591172 10.0483559,5.94587433 9.9664006,6.30105507 C8.1492019,6.71938924 6.71938924,8.1492019 6.30026607,9.96561159 C5.94587433,10.0483559 5.57591172,10.0916667 5.19583333,10.0916667 C2.49193925,10.0916667 0.3,7.89972742 0.3,5.19583333 C0.3,2.49193925 2.49193925,0.3 5.19583333,0.3 Z M5.83382161,2.94375 L5.10231527,2.94375 L4.02083333,3.70394287 L4.02083333,4.40102539 L5.09084066,3.64943848 L5.10805257,3.64943848 L5.10805257,7.08321533 L5.83382161,7.08321533 L5.83382161,2.94375 Z" id="形状结合" fill="#000000"></path>
    </g>
</svg>