<?xml version="1.0" encoding="UTF-8"?>
<svg width="24px" height="24px" viewBox="0 0 24 24" version="1.1" xmlns="http://www.w3.org/2000/svg" xmlns:xlink="http://www.w3.org/1999/xlink">
    <!-- Generator: Sketch 55.2 (78181) - https://sketchapp.com -->
    <title>icons_filled_call_end</title>
    <desc>Created with Sketch.</desc>
    <g id="icons_filled_call_end" stroke="none" stroke-width="1" fill="none" fill-rule="evenodd">
        <g id="XMLID_19_" transform="translate(12.000000, 13.000000) rotate(135.000000) translate(-12.000000, -13.000000) translate(3.000000, 4.000000)" fill="#000000">
            <path d="M13.8187255,12.6323907 C13.6336533,12.5706941 13.5565398,12.6015424 13.3868903,12.6940874 C12.8316737,13.0025707 11.4744774,13.7429306 10.6724978,14.159383 C10.4720029,14.2673522 10.2560853,14.3290488 10.0093224,14.3290488 C9.74713673,14.3290488 9.51579646,14.251928 9.31530156,14.1285347 C8.18944557,13.4652956 7.12528033,12.6940874 6.21534193,11.7686375 C5.30540354,10.8586118 4.5342693,9.79434447 3.87109386,8.66838046 C3.74771238,8.46786632 3.67059896,8.22107969 3.67059896,7.97429306 C3.67059896,7.74293059 3.7322897,7.51156812 3.84024849,7.31105398 C4.25666098,6.49357326 4.99694984,5.13624679 5.30540354,4.59640103 C5.39793964,4.42673522 5.42878501,4.33419023 5.36709427,4.16452442 L4.05616608,0.678663239 C3.88651654,0.277634961 3.50094943,0.0154241645 3.03826889,0 C2.85319667,0 2.63727908,0.0771208226 2.59101103,0.0925449871 C1.07958793,0.64781491 0,2.08226221 0,3.77892031 C0,4.25706941 0.123381478,4.70437018 0.138804162,4.81233933 C0.879093028,8.05141388 2.52932029,10.9357326 4.79645494,13.2030848 C7.06358959,15.470437 9.94763163,17.1208226 13.1863954,17.8611825 C13.2943542,17.8920308 13.7416121,18 14.2197153,18 C15.9162106,18 17.3505203,16.9203085 17.9057369,15.4087404 C17.9211596,15.3624679 18.0136957,15.1465296 17.998273,14.9614396 C17.9674277,14.4987147 17.705242,14.1131105 17.3042522,13.9434447 L13.8187255,12.6323907 Z" id="Combined-Shape"></path>
        </g>
    </g>
</svg>