<?xml version="1.0" encoding="UTF-8"?>
<svg width="24px" height="24px" viewBox="0 0 24 24" version="1.1" xmlns="http://www.w3.org/2000/svg" xmlns:xlink="http://www.w3.org/1999/xlink">
    <!-- Generator: Sketch 61 (89581) - https://sketch.com -->
    <title>voice_3</title>
    <desc>Created with Sketch.</desc>
    <g id="slice" stroke="none" stroke-width="1" fill="none" fill-rule="evenodd">
        <g id="Icons/Tint-Color/Black备份-3" transform="translate(-10.000000, -10.000000)" fill="#07C160">
            <path d="M24.8994949,12 C27.4329966,14.5592232 29,18.0947571 29,22 C29,25.9052429 27.4329966,29.4407768 24.8994949,32 L23.4145707,30.5 C25.6332132,28.2588326 26.9,25.2334052 26.9,22 C26.9,18.7665948 25.6332132,15.7411674 23.4145707,13.5 L24.8994949,12 Z M21.4346717,15.5 C23.0814478,17.1634951 24.1,19.4615921 24.1,22 C24.1,24.5384079 23.0814478,26.8365049 21.4346717,28.5 L19.9497475,27 C21.2553923,25.6810995 22,23.9027762 22,22 C22,20.0972238 21.2553923,18.3189005 19.9497475,17 L21.4346717,15.5 Z M17.9698485,19 C18.729899,19.767767 19.2,20.8284271 19.2,22 C19.2,23.1715729 18.729899,24.232233 17.9698485,25 L17.9698485,25 L15,22 Z" id="Combined-Shape"></path>
        </g>
    </g>
</svg>